<svg id="Layer_1" data-name="Layer 1" xmlns="http://www.w3.org/2000/svg" viewBox="0 0 378.01 353.63"><defs><style>.cls-1{fill:#fff;}</style></defs><title>js-trivia-logo</title><path class="cls-1" d="M188.81,220.47l-2.51-1.26V205.86l1.06-.67c-.2-.91-.4-1.81-.61-2.72h1.07l.72.52-.79-.45c-.15-.26-.31-.52-.46-.79l-.47.79c-1.39-.45-.9-1.56-.78-2.44.17-1.27,1.09-2.75.69-3.72-1.42-3.47-.52-7-.71-10.47-.12-2.25.14-4.52.21-6.46l1.55-1.93v0l.77-.51-.78-.49,0,0-.36-.67-.69.7.06-.07c-1.5-.89-1.15-2.44-.65-3.43.93-1.84.62-3.33,0-5.16-.48-1.47-.09-3.22-.09-5.52l1,1.71c3.75-.72,7,.38,10.14,2.39s6.57,3.51,10.43,5.53l1.3-.31a7.6,7.6,0,0,0,5.61,3c1.81.23,3.52,1.2,5.28,1.84l-.5.71.43-.77,3,.18,2.05,1.82.11.16c.35.19.09.05-.17-.1l1-1.07c.67.74,1.19,1.31,1.45,1.61,3.2.54,6.08,1.11,9,1.48,2.44.32,4.9.4,7.36.6,1.1.09,2.19.22,3.28.33l.76.49-.8-.45,2-1,0,0,.35.68.69-.67,0,0L252,179.4a3.22,3.22,0,0,0,.33-.67c1.46-5.88,1.46-5.88-.11-9l-2.18-.58.41-1.55-6.33.92L244,168l2.75-.88-4.5-1.56-.54,1,.06-.06h-7l-1.73-1.89-4.62-.22-2.51-2-1.48.66a3.07,3.07,0,0,1-.76-.25c-2.44-1.67-4.86-3.22-8-3.52-3.82-.36-6.85-2.85-10-4.64a57,57,0,0,1-12.53-9.94c-1.57-1.59-1.36-3.29-2.39-5.5-3.85-1.67-5.23-6.19-7.46-10.05a2.61,2.61,0,0,1-.33-1.9c1.09-3.13-.56-5.53-2.23-8l1.83-1.22c-.55-1.18-1.11-2.37-1.63-3.46-.09-4.38-.1-8.56,1.55-12.71.89-2.24.6-4.94.88-7.42.26-2.27.41-4.63,3.41-5.42l-1.36-.78a35.28,35.28,0,0,1,7.76-12,12.78,12.78,0,0,0,1.61-2.8l.31,1.68.65-.27-.91-1.46,4.93-4.92.8.41-.7-.52c1-1.5,2.67-.54,4-.91l-.05-.07c-.43,1.49-.87,3-1.23,4.23,5.11,5,5.75,5.3,9.4,4-.42-2.1-1.4-4.25-.11-6-.95-2.72-3.47-2.07-5-3.14l0,0c-.13-.77-.25-1.55-.37-2.26l6-3.68,1.39,1-.52.72.46-.78h1.79c1.55-1.36,2.88-3.53,4.4-3.67,3.19-.3,5.37-4.2,9-2.22L231.16,54l7.22-1,1.83,1.29,1.42-1.66,5.87.65,1.29-.68.78.49-.8-.47v-1h5c.08.58.16,1.17.32,2.41l1.68-2.41h2l3,2.1c2.29-1.72,4.3-.84,5.91-.15,5.33-2.28,9.59,2.66,14.48,1.37.5-.13,1.31.91,1.66,1.18,1.42-.15,2.65-.65,3.61-.32,9.78,3.29,20.16,4.91,29.17,10.45a290.32,290.32,0,0,0,.18,30.94l-2.07-.2c.13,1,.23,1.69.34,2.44l1.16-.4c0,3.61-.2,7.08.06,10.51.22,3.1-.41,6.22.34,9.32.19.81-.53,1.83-.83,2.76l0,0a27.85,27.85,0,0,1-4.3-.78c-3.09-1.07-6.13-2.29-9.15-3.55a29.46,29.46,0,0,1-3.24-1.79l-.69-2.65-1.47,1.84-3.1-2.07h-4.65c-3.31-1.31-6.19-3-9.26-3.5s-6.44-1.51-9.92-.51l.8-2.15c-2.55,1-4.87,1.65-7.18.28a2.37,2.37,0,0,0-1.95,0c-3,1.54-6.86,1.72-8.34,5.54-.14.36-.79.52-1.3.84,2.27.69,1.45,2.61,1.78,4.11a8.93,8.93,0,0,0,1.06,2.06l2.07-.58,1.53,1.65a10.5,10.5,0,0,1,2.35-.11c2.4.41,4.81.81,7.15,1.45,4.31,1.18,9,1,12.82,3.91l-1.82.23.21.73,1.58-1c2.74-.39,4.48,1.59,6.35,3.08l.7-1.09-.06.06,3,1-.48.75.47-.75,5.78,3.43.5-.82,8.39,5L304,137.2a17.21,17.21,0,0,1,10.39,8.94l1.07-.3c1.17,3.39,2.5,6.69,5.09,9.39,1.07,1.12,1.47,2.89,2,4.07l-.79,3,1.58-.44,1.16,5c-.52.76-1,1.53-1.66,2.46l2.88,2.18v2l-.7.33.7.67v1l-1,1.29,1,.71v1l-1.77.16c0,4.83,1.3,10-2.53,14.44-.28,2-.6,4.26-1,6.79l-3.76,2.32.93,2.46c-3.34,4.07-6.21,8.77-10.92,11.84l0-.06c-.43-.27-.18-.12.06,0-1.69,2.19-3.44,4.29-6.82,3.44l-.4,2.29-15.48,6.88-1.66-1.26c-1.46,1.45-2.74,3.35-5.22,1.91l-.86,1.49c-3.07.4-6.29,1-9.54,1.19s-6.15,1-9.45.56c-3.07-.38-6.34,1.08-9.48-.39-3,1.7-6.22.34-9.31.39-3.25.05-6.51-.56-10.57-1l-3.22-1.51L224,230l.78.44-.76,1-3-2c-2.27.5-4.76.75-7-1.16a3.3,3.3,0,0,0-2.59-.42c-2.12.56-3.14-.81-4.31-2.13l-1.78,1.48c-4.1-2.68-9.56-2.44-13.58-5.77l0,0c.26-.17.52-.34.77-.52l-.77-.52,0,.05-2.88-2-.18,2Zm-.05-124.92-.74-.48.8.42c.15.23.3.46.1.16C189.26,95.85,189,95.7,188.76,95.55ZM290.85,61.47,288.92,58l-3.56-1c-5,.93-3.89,5.55-5.45,8.52-.08.15.25.5.4.78l1.4-1,6.84.31ZM220,73.52c3.75-3.09,3.85-3.87,1.2-6.76h-8.54c.37,2.5-.9,5,1.79,6.76Zm11,128.63-3.08,2.72v3.71l4.39,2,2.29-2.09C235.24,205.06,234,203.38,231,202.15Zm-40.34-102c-1-1.9-2.7-1.94-5.08-1.15l-2.12,4.47,2,2.11c1.78-.22,3.76.64,5.19-1.68Zm21.79,23.12c-1.07,1.3-2,2.39-3,3.6l1.59,2.51h4.22c2-1.39,1.78-3,1.07-5.12Zm101.79,52.07-3.56,1.9c.56,2.71,1.7,4.33,4.58,4.19l2-3.38Zm-48-20.06c-1,1.54-1.86,3-2.73,4.34,2.83,2.28,2.83,2.28,5.2.21C269,158.1,268.91,156.53,266.27,155.26Zm-45.15-5.6L218,153c1.38,2.13,3,1.82,4.66,1.18C223,152.27,223.16,150.68,221.12,149.66Zm54.34-45.45a15.61,15.61,0,0,0,2.47.36,10.3,10.3,0,0,0,1.95-.53c-.21-1-.38-1.69-.51-2.3C277.32,101.22,276.32,102,275.46,104.21Zm-4.6,47.84,1.94,1.77,2.12-1.88-2.44-1.6Zm48.4,30.52-1.15.18c-.46,1.2-1.06,2.46,1.73,2.82Zm-49.1,28.64L268.84,214l.67.55,2.22-1.64Zm6.7-79.36-.36-2.19-2.67.25-.12.88ZM290,160.91l-2.73-1.35-.52.62,1.55,2.22ZM225.69,91.75c-.64,1.26-1.41,2.76,1.23,2.55ZM194.55,209.91c.62,3.15,1.69,2.81,3.35,2ZM285.91,75.09c-.5-3.16-1.64-2.68-3.33-2Zm-34.7,58.28-2.06-1.73-1.43,1.73Zm45.45,70.28.92.87,1.08-1.48-.62-.56ZM193.73,167.33c-.36.49-.84,1-.78,1.07a6.39,6.39,0,0,0,1.14,1c.2-.35.56-.72.54-1S194.15,167.77,193.73,167.33Zm46-38.27c1.74.77,2,.1,1.94-1.65Zm-22.52,95.8,1.87-2C217.08,222.37,216.62,222.77,217.22,224.86ZM268.57,69c-1.06-.18-2.31-.53-1.14,1.27Zm21.21,12.7.73.55,1-1.26-.43-.45ZM314,72.35h.53V69.81H314ZM270.87,78.7c-.84,0-1.44-.09-1.6.12s-.18.86-.36,2.05C269.83,79.84,270.2,79.43,270.87,78.7Zm4.55,46.51-.07-.55-1.26.19.07.5Zm-53,53.85c-.78.17-.39.09,0,0Zm-34.95,10.81-.54.07.17,1.23.5-.06Zm0,26.87h-.43l-.09,1.5.52,0ZM292.09,58.83v.38h1.47v-.38Zm-19.83,64.8v.72l.36-.32Zm-89.94-9.86-.21.32.35,0Zm105.91-2.5.31-.22c-.08-.1-.16-.25-.26-.27s-.19.14-.29.22ZM247.3,71.72,247,72l.57,0ZM274.64,230H274l.27.32Zm-39.33.76-.22.34.37,0ZM216,188l.32.22.05-.36Zm-1,2,.33.21,0-.37Z"/><path class="cls-1" d="M168.81,81.54c.29.52.83,1,.84,1.55q.07,9.24,0,18.48a26,26,0,0,1-.57,3.58c-1.37,1.25-4,2.23-3,6.12l3.56,3.16c0,4.6.33,9.46-.09,14.24-.4,4.5.42,8.92.19,13.38-.25,4.8-.32,9.61-.38,14.42-.06,4.49,0,9,0,13.86l-.94-1.46c-2,2.81,1.37,5.56,0,8.28l-1.46-.37c.66,3.52-.67,6.85-.61,10.54l-2.83.33c-2.1,2.12.57,3.1,1.12,4.57a39.55,39.55,0,0,1-4.17,9.39c-1.76,2.91-3.87,5.68-5.78,8.56s-4.79,5.25-7.52,7.52-5.87,4.21-9.35,6.65l-3.53.33L132,227.26c-1.7,1-4.42.53-6.82,2-2,1.2-4.92.94-7.43,1.33l-.69-.5.75.44c-3.32,3.41-6.74,1.33-10.4.08L105.25,233c-2.6.07-5.37.24-8.13.17s-5.82,1.22-8-.35c-2.46.11-4.38.31-6.28.24s-4.09-.39-6.13-.58a30.88,30.88,0,0,1-5.82-.77c-1.62-.46-3.17-1.57-5.15-1.14l-3.42-2.73-1.11,1.46-6.11-2.44-3.2-5.38c.19-1.63.5-3.48.6-5.35s-.62-3.67-.38-5.72c.18-1.63.87-3.48.07-5.47-.68-1.7-.14-3.89-.14-5.85l1.84-1.26L52.1,195c.11-7.52.36-15.07-.27-22.55,4.21-2,7.23-3.18,10.65,2.1l3.06-2.23-.45,2.12h9.3l3.92,2.67v-2.25c3.78-.25,7.6.53,11.06-.48,4.95-4.18,6.51-10.06,9.25-15.46-.06-3.66-1.5-7.56.21-11.41l-.06.07,1.06-.67-1.91-4.24c2.26-2.82-.85-6.23.51-9.63.52-1.29-.45-3.28.2-4.94-1.94-3.07-.2-5.67,1.06-8.34-.61-1.3-1.68-2.6-1.67-3.9s.63-2.36-.09-3.57l1.64-2.15-1.53-2c.23-2.09,1.2-4.4.5-5.93-1.66-3.59.27-6.35,1.21-9.8l-1.67-2.21c.06-2.37,1.12-4.93-.2-7.44-.92-1.76.85-3.23.59-5.17-.43-3.28-.75-6.73.36-10l-.06.07,1-.65-1.51-3.46V54.87c2.91,0,6.07-.08,9.23,0,1.76.05,3.51.41,5.26.63h0l.52.77.51-.78,0,0c1.41-.28,2.92-1,4.21-.76,3,.63,6,.13,8.91,0a52.44,52.44,0,0,1,8.32.46c1.34.17,2.77-.44,4.17-.51.47,0,1,.51,1.44.79l-.5.69.43-.75c1.1-.29,2.3-1,3.29-.8,4,.87,8-.16,12-.06,2.09.06,4.17-.31,6.32.68,1.24.57,3.12-.24,5.06-.46l1.95.94a5.31,5.31,0,0,1,.29,1.35c-.27,6.59.45,13.2-.47,19.81-.2,1.42.66,3.08-.42,4.55l-3.6-2.4L163,83.33l1.52,1.13,4.18-1.34Zm-27,1.95v4.15l3-1.91c-.6-1.8-1.59-2.38-3.06-2.18l1-2.4-2.87-1.61-1.42,2.76Zm-58,120a6.36,6.36,0,0,0,5.8.74c1.3-1.2,1.51-2.32.79-3.69-1-1.88-1.81-3.89-4.66-4.12a11.32,11.32,0,0,0-1.77,1.3,17.11,17.11,0,0,0-1.51,2.15l1.31,3.58c-.26.17-.52.34.13-.09Zm32.45-115-4.76,3.7,1.68,6.39,3.53,1.87,6.12-2.31c2.21-4.27,2.21-4.27,1.16-8.11,1-.73,2.48-1.24,1.38-3.28l-3.77,1.74Zm27.12,107.25L139.93,197v3l2.35,1.3,3-1.53,2.48,1.79,6.28-4.25-1.73-1.82L150.55,197Zm-17.27-57.64-2.73-4.88-5.52,2.83c-.14,2.56,1.37,3.39,2.59,4.35h4Zm8.15-23.32,2.31-3.74c-2.07-3.22-2.54-3.45-5.64-2.84V113Zm-21.58,46.88c-1.88-.25-3.44-.65-5.13.68l2.06,3.29C112.09,165.41,113.13,164.36,112.69,161.67Zm-33.75,65a19.5,19.5,0,0,0-.15,2.38,6.28,6.28,0,0,0,.56,1.57l5.54-.48C82.63,228.22,82.1,225.91,78.94,226.7ZM107.62,67.18c-1.45,2.62-.36,3.66,1.8,4.53l3-2.31ZM116,76.71c.28,3.74.34,3.78,3.57,3.22C119.33,77,119.33,77,116,76.71Zm44.65,54.22L158,130.6v3.68h2.63ZM145,168.4l1,.36,2.57-2.85-3.89-.24Zm-.67,23.83.38-3.94-3.5.88Zm-9.79-123,3.28,1.62-.37-3.69ZM65.55,217.35l.44-1.09-1.82-1.91-2,2.59Zm60.47-112c-1.51-2.43-1.51-2.43-3.37-.19Zm40.1-33V76.1L168,73.28Zm-50.19,133-.77-.87-1.25,1.17c.32.25.74.76.92.69A4.24,4.24,0,0,0,115.93,205.36Zm38.3-109.81.49-.6-1.45-1.22-.51.62Zm-15.82,13.14c1.78-.41,3-.14,1.76-2ZM69.85,207.28l-.77-.57-1,1.34.47.46Zm81.6-123.06-.07-.57-1.31.19.07.53Zm-28.34,27.94.56-.07-.19-1.26-.51.06ZM58,226.14l.46,0-.06-1.24-.48,0Zm56.29,3.63-.21.31.35,0ZM73.63,231l-.28-.32,0,.59Zm1.69-.34L75,231l.64,0Zm3.93-39.42.31-.23c-.08-.1-.16-.25-.25-.27s-.25.13-.27.22S79.18,191.17,79.25,191.27Z"/><path class="cls-1" d="M110.82,254.53c-1.56-.87-.73-2.22-.71-3.74a70.3,70.3,0,0,0,9-.75c3.06-.63,6,1.2,8.78.34,3.1-1,5.81.64,8.79.48s5.87,1.4,8.81,2.2l-.33.91,3.6,1.46-.4.86.56-.71c2.44,2.26,2.79,5.55,3.5,8.43s0,6,0,9.11l-2.36.82,1.5.92c-2.29,3.76-6,6-9.41,8.68l.17,2.23c3.73,3.71,5.72,8.58,7.95,13.34l1.19-.19,5.46,8.29c-4.77.51-9.13.17-13.4.19l-8.55-13.24-.13-1.14-5.63-6.81.68-2.12-6.6.54c-1.22,2.19-.13,4.75-.68,7.23l-1.45,2,1.6,1.25a13,13,0,0,0,0,9l-2,2.4,0,0-6.07,1.33-1.42-2.06-.77,1.26h-2.45c-1-1.87.86-3,1.19-3.53-.19-8-.36-15-.53-22,1-.33,1.44-.8.19-1.88l-.14,1.92c-2.35-2.34-.1-4,.88-5.83-1.36-5.83-1-11.73-.6-17.58.09-1.34-.7-2.4-.33-3.63l1-1.41-.69-.29Zm26.33,20.93,5.36-7.35-5-6.61.27-2.81h-2.51l-1,1.65a26.48,26.48,0,0,0-10.9.3c-.7,2.52-1.27,4.61-1.83,6.62,3.15,2-1,4.53.32,6.78l2.72,2.44h9.57l1.25-1.56Zm6.15-21.76-.29.24.56.05Z"/><path class="cls-1" d="M299.78,254.49l2.62,3.56c-1.5,1.72,2.23,2.41.81,4.12,1.89.69,1.36,2.38,1.63,3.78a9.78,9.78,0,0,0,1,2.74,127.13,127.13,0,0,1,9,21.74c1,3,2.53,5.72,3.77,8.6,1.08,2.52,2.08,5.07,3.27,8-4.33,1-8.42.13-12.6.59-1-2.62-3.49-4.65-2-7.69-1.13-1.35-2.24-2.68-3.67-4.37-2-.69-4.57-.23-7.1,0-2.74.2-5.43-.51-8.21-.15a67.29,67.29,0,0,1-8.19.07c-.26,1.27-.48,2.36-.74,3.62l-1.65-.24.56,2.51c-.77,1.54-1.68,3.39-2.6,5.24l-.7-.5.76.43-1.33,1.22-1.09-1.9-1.23,1.57h-8c-1-2.62.78-3.59,2.57-4.51-.28-.83-.54-1.59-.89-2.65,2.93-2,1.08-6.76,4.86-8.28.11-1.75.2-3.23.25-4l4.69-7.43-.71-2c2.64-2.2,2.81-5.29,3.05-8l3.55-4.38-.86-2.31c.94-1.06,1.76-2,2.65-3l3.58-.83c2.44-3.36-1-6.13.19-9.09l2.68-.87,8.8.73c.47.65,1.26,1.66,1.93,2.75.08.13-.47.66-.73,1-.16-.27-.31-.54,0,0C299.25,254.18,299.51,254.33,299.78,254.49Zm0,31,.77.42-.71-.49,2.64-1.68c-4.76-1.17-2.9-6.25-5.31-8.65l.71-1.87-2.79-2-.78-5.91-2.37-1.07c-1.25,3.85-1.87,7.7-3.7,10.85s-1.13,7.37-4.18,9.9l4.17,2.1C291.94,285.85,296.09,287.38,299.75,285.53Zm.56-27.79L300,258l.53.06Zm-.07,22.51.32-.22c-.09-.1-.17-.25-.27-.27s-.19.14-.28.22ZM296.54,294l-.24-.27,0,.5Zm-26.49,1,.31.2,0-.34Z"/><path class="cls-1" d="M213.76,283.53a6.4,6.4,0,0,0,1.2-3.82c1-1.42,1.82-2.42,2.46-3.52a28.51,28.51,0,0,0,.65-6.32l2.65-3-.6-1.92,3.89-2.13,1.65-3c-.52-1.6-1.08-3.29-1.82-5.52l3.47-4.6.7,2.43c1.73,1,2.58.24,3.28-1.5,1-.05,2.13,0,3.24-.18a8.58,8.58,0,0,1,3-.31l-2.41,2,1.6,2.07-1.23,3-1.73-.32c.17,1.17.32,2.23.5,3.51-1.53,3.76-3.08,7.87-4.89,11.85-.57,1.24-.57,2.75-2.11,3.72-1.11.69.65,2.58-.47,4-1.59,2-1.51,4.9-2.9,6.75-1,1.39.52,2.94-.65,3.37-1.44.53-.47,2-1.52,2.52-1.57.79-.33,2.65-1.1,3.54-2.1,2.41-2.09,5.46-3,8.21-.39,1.14-1.55,2-2.45,3.12h-10.6L202.1,304l1-.65c-1.55-3.14-3.08-6.26-5-10.13-.5-4-1.49-6.57-5-12.31l1.62-.84c-2.76-1.39-2.49-4.11-3.3-6.41s-3.4-3.86-3.25-6.72l1.62-1.06c-4.07-.76-3.24-4.53-4.65-6.92-1.57-2.64-2.77-5.62-2.13-8.94l11.38.71c2.48,6.53,4.69,13.27,7.56,19.72s4.18,13.55,7.65,20.31c1.91-2.33,3.94-4.26,4.23-7.31Zm-17.16-12c.08-2,.63-3.51-.6-5.1-2.43,1.08-2.57,2.73-1.73,4.92Zm.93,8.55-.33-.22,0,.38Zm-2.27,2.22.2-.34-.34,0Z"/><path class="cls-1" d="M52.78,258.53l1.13-.68L52,255.62v-2.25l2.53-2.76c3.59-.4,7.23.38,10.81-.88,1.34-.46,3.08.18,4.63.36.81.1,1.6.36,2.41.43,2.38.22,4.61-1,7.19-.16,2.28.71,5,.31,7.44.18,1.94-.1,3.86-.55,6-.88l1.26,1.55L95.87,250l6.61.76v9.11c-4.63,0-9.14.24-13.61-.11-2-.16-3.23,1.21-5.17.91,0,4,0,7.7,0,11.35,0,2.12.32,4.23-.74,6.33-.87,1.72,1,3.69,0,5.59,1.66,6.21.38,12.53.65,18.8.07,1.53-.82,3.1-1.23,4.54h-9c-.52-2.91-1.11-5.6-1.43-8.32a3.31,3.31,0,0,1,1-2.46c1.07-.94-.3-1.38-.17-2l.48-.7-.43.74c-1.68-2.51-.85-5.22-.65-7.88.09-1.27.15-2.55.23-3.92l2.47-1.38-1.69-1.48-1.11-8.48,1.32-2.5-.59-1.39v0c.25-.17.5-.34.76-.5l-.75-.5h0c-.31-1.26-.57-2.53-.92-3.77-.3-1.05-.71-2.07-1.12-3.26-3.36,1.14-6.39,1.39-8.46.37l-9.29.43-.17-1.8Zm48.77.51-.22-.31c-.1.09-.25.16-.27.26s.14.19.22.28ZM82.26,274.27l.31-.24c-.08-.1-.16-.27-.26-.28s-.26.13-.28.23S82.18,274.17,82.26,274.27ZM82.57,301l-.22-.28,0,.52Z"/><path class="cls-1" d="M256.24,271c.18,4.21.54,7.17.38,10.1s.62,6.23-.07,9.14,1.27,5.8-.46,7.87c.28,3.27.52,6,.79,9.09h-12l1.63-1.14-1.72-2.36c.14-1.74.32-3.82.57-6.8-1.37-4-1.4-12.38.26-18-.62-2.36-1.49-4.73,0-7.1-2.21-7-1.34-13.92.28-20.82l7.09-1.3,1.21,1.48,2.44-1.47c0,2.82,0,5.29,0,7.77s.68,5.37-.33,7.37C255.06,267.3,259,269.79,256.24,271Z"/><path class="cls-1" d="M174.76,255.48A19.26,19.26,0,0,1,175.2,267v6.63c1,1.44,0,3.95-.12,6.48-.13,3,.47,6,.56,9a31.76,31.76,0,0,1-.64,4.83c1.27,1.66.82,3.86-.44,6.1,1.75,2.53,1.31,5-.45,7.35h-9.06L163.68,306c.49-3.22,1.39-6.15.28-9.38a15.28,15.28,0,0,1-.16-7c.34-2.2.39-4.45.57-6.72l-1.15.33c-.63-1.44-.33-2.53,1.23-3.11l-.83-2.19,3.28-6.61-3.17-3c-.9-1.25-.08-3.63.32-6.15l2.45-1.83c.53-2,.8-3.75-1.55-4.8l-2.29.77,1.51-2.7-.38-2.72,9.14-1.19,1.89,1.8-.06-.06v2.05l.06-.07q-2.06,1,0,2.08Zm-9.71,31.76c.29-.27.61-.44.61-.6a8.86,8.86,0,0,0-.75-1.78Zm1.21,19.06.33-.27-.28-.31c-.1.09-.27.17-.28.28S166.18,306.2,166.26,306.3Z"/><path class="cls-1" d="M191.8,221.49c-1-.25-2.4.53-3-1l-.06.07h3.06l0-.05v1Z"/><path class="cls-1" d="M203.81,67.56c.5-1.72,1.94-.79,3-1.06l0,0c-.65,1.49-2,.6-3,.94Z"/><path class="cls-1" d="M120.77,306.52l1.7.23-.29.65-1.36-.93Z"/><path class="cls-1" d="M174.76,253.53c1.18.65,1.2,1.3,0,1.95l.06.06v-2.08Z"/><path class="cls-1" d="M241.75,166.54c.26.15.52.3.15.09.21.32.06.08-.09-.15Z"/><path class="cls-1" d="M98.83,67.49l-.16-.09c-.2-.31,0-.08.1.16Z"/><polygon class="cls-1" points="204.55 65.09 204.21 65.23 204.24 64.91 204.55 65.09"/><path class="cls-1" d="M174.82,251.54l.39-.82-.45.76Z"/><path class="cls-1" d="M52.84,258.47l-.75-.47.69.53Z"/><path class="cls-1" d="M112.8,55.53l.5-.74.48.75,0,0h-1Z"/><path class="cls-1" d="M72.81,267.49l-.68-.66.67-.33h0v1Z"/><path class="cls-1" d="M98.83,147.48c-.25-.14-.5-.29-.17-.09-.19-.3,0-.07.11.16Z"/><path class="cls-1" d="M248.8,180.53l.48-.73.49.73,0,0h-1Z"/><path class="cls-1" d="M213.81,283.47l-.7-.43.65.49Z"/><path class="cls-1" d="M187.78,177.52l-1-1-.06.07,1.05,0,0,0v1Z"/><path class="cls-1" d="M286.81,127.49l-.75-.38.69.44Z"/><path class="cls-1" d="M314.76,121.53c.26.19.51.38.07,0,.24.44.1.18-.05-.08Z"/><path class="cls-1" d="M4.8,282.75l3.14-2.32,3.17,2.84c-1.73,2.32-3.44,3.91-6.31,2.74Z"/><path class="cls-1" d="M19,229.54a16,16,0,0,1-1-3.4c-.16-1.91,0-3.84,0-5.76,0-13.76,0-27.53.15-41.29a39.11,39.11,0,0,1,.53-5c-1.43-9.39-.34-18-.7-26.46s-.12-17,.23-25.47-.34-16.73.06-25.11.09-16.92.09-25.89l-3,.4-1-2.07,3.38-1.33c1.72-6.87,0-13.8.33-20.71s.08-14.07.08-21.22l3.83-7.39c1.66-.93,2.8-1.58,3.95-2.21s2.54-1.35,4.1-2.18c23.64.36,47.58-.75,72.62.58,1.86-.14,4.88-.6,7.9-.57,10.63.08,21.27.5,31.9.48,17.62,0,35.23-.34,52.85-.48,8.36-.07,16.73,0,25.09-.05a8.34,8.34,0,0,0,1.6-.37l-2.19-3.28c2-.76,3.45-2.63,5.63-.27l-1.72,3.36a4.08,4.08,0,0,0,1.27.51q13,.07,26,.1h15l2.26-2.57L271,14.39h10.89c.29,1.45.55,2.77.82,4.1h5.5c.55-1.22,1.05-2.33,1.74-3.88h56.91l-3-4.32c1.1-3.14,3.44-2.29,5.67-2.24l1.77,2.79-1.75,4c.31.38.57,1.07,1,1.15,7.46,1.49,9.38,7.45,10.11,13.59a35.11,35.11,0,0,1-.58,9.83c-.57,3.33.85,7,.59,10.41-.64,8.3.05,16.53.37,24.79l3,1.25c.87,2.71-1.6,3.45-3.22,5.83-.13,5.28-.3,11.43-.44,17.58,0,1.92,0,3.84,0,5.76.11,8.29,0,16.57.48,24.85.37,6.72-.4,13.49-.25,20.22.16,7.19-.3,14.36.1,21.57.48,8.76-.64,17.62-.16,26.38.31,5.63-1.34,11.25.3,16.86.41,1.44-.28,3.17-.27,4.76.09,7.73.29,15.45.37,23.17.05,5,0,10-.07,15q-.15,9.42-.42,18.83c-.21,8.07.2,16.13.44,24.19.19,6.68-.23,13.38-.39,20.07,0,1.74-.23,3.49-.14,5.23.55,10.38-1.69,13.93-11.17,17.48-.5.19-1,.41-1.31.54-15.34-1.06-30.56.19-46.71-.91l-2,1-4.56-1.17c-3.88,2.48-8.15.28-12.28.63-5.49.47-11,.39-16.57.35-6.11-.05-12.24-.11-18.32-.66a12.46,12.46,0,0,0-4.52.52c-1.45.37-3.1.72-4.25-1.19l-3,1.49c-16-.93-31.89,0-48.36-.94l-1.15.71L138,343.64,136,337.31c-4.74-.3-4.58,3.18-5.36,5.65-2.29,2.18-4.43.58-6.38.11-1.49.48-2.83,1.28-4.15,1.25-7.09-.13-14.19-.84-21.27-.61-6.84.23-13.65-.39-20.47-.08a22.92,22.92,0,0,1-3.84-.57c-1.68.48-4.1,2.45-6.57-.32l-2.7,1.41c-3.38,0-6.21.05-9,0s-5.62-.28-8.52-.43l.61,3.61c-1.15.94-2.34,1.93-3.24,2.68-4.09-.53-4.44-3.27-4.45-5.92-3.73-.18-7.11-.32-10.48-.53-4.71-.29-9.6-3.84-10.9-8.27a23.24,23.24,0,0,1-1.07-7.18c.19-10.24-.08-20.5,0-30.75,0-3.58,1.3-7.37.48-10.69-.91-3.66-.41-7.11-.45-10.65-.12-11-.19-22.07-.1-33.1,0-4.48.56-9,.87-13.45l2.4,2.32c2.5-.16,3-1.81,3.92-3.36L21.94,226ZM346.67,274h.67l-.8-2.34c-.11-8.54-.22-15.88-.3-23.22s-.26-14.6-.16-21.89.49-14.48.75-21.63l2.29-2.11-3.3-2.26c.24-3.57.7-7.29.69-11,0-8.63-.59-17.27-.36-25.89.18-6.91.26-13.76,0-20.67-.4-12,0-24-.1-36,0-1.43.25-2.87.31-4.3.15-3.51.42-7,.35-10.52-.08-4-.66-7.9-.71-11.86-.1-8.24,0-16.49,0-24.73A71.55,71.55,0,0,1,346.2,47c.73-5.83,1-11.58-.83-18.09-18.89-.13-37.9.33-56.92.22-18.85-.1-37.7,0-56.55,0H175l-1.25-1.69c-7.5,2.35-15,1.08-22.43,1.49l-2-2.55c-1.25.33-2.78.28-3.59,1-2.53,2.34-5.53,1.46-8.38,1.65-1,.07-2.09,0-3.13,0-5.78.1-11.65.92-17.3.11-6.25-.9-12.35.12-18.51,0-5.75-.15-11.57.73-17.26.14-9.48-1-19,.54-28.41-.63a27.09,27.09,0,0,0-4.27.34c-1.21.06-2.42,0-3.63-.06-4.21-.13-8.46-.61-12.37.94a7.3,7.3,0,0,0-.36,1.36c0,5.05,0,10.1,0,15.15s-.47,9.88-.31,14.86c.31,10-.4,19.91.13,29.9.39,7.47.89,15.06-.77,22.51,1.4,6.79.55,13.61.27,20.43-.08,1.93-.34,3.87-.24,5.8.16,2.84.71,5.66.85,8.51.45,9.46-.69,18.91-.16,28.37.47,8.34-1.07,16.64.05,25.06.78,5.83,0,11.88-.12,17.83-.07,2.81-.8,5.68-.45,8.43a93.6,93.6,0,0,1,.05,18.86,62.14,62.14,0,0,0-.12,7.35c.11,2.31.72,4.6.74,6.91.05,5.22-.3,10.46-.14,15.68.09,2.69-.8,5.37-.53,7.85a88.42,88.42,0,0,1-.1,19.38c-.25,2.27-.68,4.75,0,6.82,1.41,4.47.5,8.94.85,13.4.13,1.58,0,3.17,0,5.28,1.66.18,3.07.67,4.31.41,7.32-1.55,14.62,1.32,22-.17,3-.6,6.21.17,9.32.15,7.12,0,14.28-.64,21.35-.1,4.21.32,8.1-.8,12.13-.62a30.34,30.34,0,0,0,6.24,1.09c3.54.05,7.09-.36,10.64-.37,7.6,0,15.23.42,22.8,0,4.07-.23,8.12.6,12.23-.27,2.35-.5,5,.29,7.47.48a19,19,0,0,0,3.75.21c7.91-.95,15.85-.27,23.77-.58,2.49-.1,5,0,7.47,0,6.09.06,12.17,0,18.26-.2a23.29,23.29,0,0,1,3.18.42,15.06,15.06,0,0,0,4.24.34c7.06-1.31,14.14,0,21.2-.4,8.15-.44,16.3.27,24.46-.3,6-.43,12.08.85,18.24.11,5.17-.63,10.51.22,15.78.14,8.72-.13,17.44.27,26.16-.27,2.45-.15,5,.75,7.44.72,3.65,0,7.3-.49,11.45-.81.3-2.54,1.09-5.21.84-7.78-.58-5.92-.28-11.8-.34-17.69-.08-7.88.17-15.79-.33-23.68A39.31,39.31,0,0,1,346.67,274ZM343.32,25.09c.88-2.75,0-4.54-2.32-6.8l-2.43,5.53ZM163.82,331.62c-1.9,1.47-2,3.22-2.39,5.88l4.53-1.9ZM26.56,221.42H30.5l-3.45-3.13ZM347.21,48.54l4.1.53c-.15-1.27-.24-2.06-.41-3.55ZM22.71,297.86l1.54-.05L23.68,295l-1,.12Z"/><path class="cls-1" d="M365.78,288.21c.61-1.85,1.09-3.28,1.66-5,2.4.52,4,1.13,3.35,4C369.6,288.21,368.41,289.53,365.78,288.21Z"/><path class="cls-1" d="M373.21,76.07c-.29,1.68-.42,2.43-.66,3.86l-3-2.81Z"/><path class="cls-1" d="M249,12.69l-3.25-2.25,3-1.65Z"/><path class="cls-1" d="M369.26,297.87l-2.26-.26V295C369,295.31,369.23,296.31,369.26,297.87Z"/><path class="cls-1" d="M282.72,345.41c-.15,1.59-.23,2.46-.37,4l-2.75-2Z"/><path class="cls-1" d="M202.37,9.09l1,1.21-1.19.91-.52-1.48Z"/><path class="cls-1" d="M86,280.55l.25,4.1-2.89,2.65-3.83-2.59-3.74,1.09-1.82-1.27c.88-1.2,1.09-1.73,1.49-2,1.71-1.14,3.46-2.2,6-3.83Z"/><path class="cls-1" d="M220.84,47.21l2.06-3.29c4.9,0,4.9,0,6.38,5l-4.34,2.54Z"/><path class="cls-1" d="M47.48,116.09l-4.27,2.27c-1.9-.23-2.61-1.16-3.62-4.43a5.46,5.46,0,0,1,6-2.46Z"/><path class="cls-1" d="M300.18,266.47c2.47,1.26,3.9,2.85,3,5.93l-2.94,1.67c-1-1-2.33-1.81-2.74-3C296.79,269.1,297.21,267.16,300.18,266.47Z"/><path class="cls-1" d="M78.18,185.05,81,189.46c-2.24,3.25-2.24,3.25-5.68,2.5C73.92,187.91,73.92,187.91,78.18,185.05Z"/><path class="cls-1" d="M306.51,202.83c-2.42,2.29-2.42,2.29-5.68,2.27-1.85-1.4-2-3.12-.92-5C303.77,199.12,303.77,199.12,306.51,202.83Z"/><path class="cls-1" d="M258.27,300.12c1,1.15,2,2.15,2.84,3.11-2.52,3.49-2.52,3.49-6.44,2.57C253.63,301.94,253.63,301.94,258.27,300.12Z"/><path class="cls-1" d="M340.67,132.75l-3.56-4,5.35-3.49c2.82,1.29,2.52,3.13,1.87,5.28Z"/><path class="cls-1" d="M132.78,239.72c-2.19,1.71-4,2.31-6,0a4.79,4.79,0,0,1,3-3.73C132.25,236.12,133,237.42,132.78,239.72Z"/><path class="cls-1" d="M53.29,217l.3,4.39c-2.4.85-4.09.45-5.51-1.74C48.58,217.27,50,216.16,53.29,217Z"/><path class="cls-1" d="M78.39,51.76l2.55-2.33c2.65.5,3.24,2.78,1.66,6C80.79,55.14,79.49,54.21,78.39,51.76Z"/><path class="cls-1" d="M203.8,57.56c-.36,1.39-.71,2.68-.94,3.56-1.75,1.07-3.28-.29-4.64-3.51C200,56.4,201.66,56.47,203.8,57.56Z"/><path class="cls-1" d="M274.7,104.36c1.95-1,3.41-1.18,4.84.75-.5,1.14-1.05,2.38-1.53,3.45C275.65,109.24,274.81,108.13,274.7,104.36Z"/><path class="cls-1" d="M276.51,140.36c-3.92,3.64-3.92,3.64-6.64,1.23.94-1.1,1.9-2.2,3.61-4.18Z"/><path class="cls-1" d="M111.57,190.66c-2.15,1.77-3.61,2.55-5.41.37l3-4.7Z"/><path class="cls-1" d="M79.06,316.47c-.09-1.9-.16-3.41-.24-5.24,2.43.17,3.79,1.35,5.68,3-1.18.58-1.87,1-2.58,1.26S80.31,316,79.06,316.47Z"/><path class="cls-1" d="M331.33,38.43l-1.88-4h5.17C335.57,37.15,333.42,37.33,331.33,38.43Z"/><path class="cls-1" d="M41.13,84.31c-3,1-4.48.51-5.92-1.52l3.28-2.91Z"/><path class="cls-1" d="M48.06,316.65l2-4,3.46,2.16C53.41,317,51.59,317.51,48.06,316.65Z"/><path class="cls-1" d="M327.24,106.15l-1.45-4.29c1.43-2,3-1.49,5.57-1.16C329.81,102.74,328.74,104.17,327.24,106.15Z"/><path class="cls-1" d="M54.53,271.11l.23,3.57c-2.58.92-3.81-.51-5.09-2C51.58,271.06,51.58,271.06,54.53,271.11Z"/><path class="cls-1" d="M326.89,258.61c-1.89-2.19-1.39-3.72.34-5.44l3.41,2.71Z"/><path class="cls-1" d="M309,175.52l1.52-4,4.23,3.06L310,176.47Z"/><path class="cls-1" d="M91,58.5l-1.68-1.89,2.33-2C93.12,56.23,92.93,57.3,91,58.5Z"/><path class="cls-1" d="M270.43,117.32c-.25-1.8-.36-2.56-.51-3.65l3.71-.35C272.35,114.93,271.68,115.77,270.43,117.32Z"/><path class="cls-1" d="M72,303.86l2.16-1.73,1.9,1.67C75.4,305.58,74.91,305.62,72,303.86Z"/><path class="cls-1" d="M337.8,78.51l3,.62-3,3.34Z"/><path class="cls-1" d="M309.06,37.13l-.47,3.51-2.92-2.81Z"/><path class="cls-1" d="M190.74,62.38l-2.22-1.92,1.42-1.69C192.16,59.74,191.92,60.75,190.74,62.38Z"/><path class="cls-1" d="M43.93,213.82l-2.77,1.92-.28-4.5Z"/><path class="cls-1" d="M334.45,232.29l-3.66.34,1-3.28Z"/><path class="cls-1" d="M125,249.75l-2.69-2.25,2.69-2.26Z"/><path class="cls-1" d="M122.64,170.07l3.5-1.51v3.7Z"/><path class="cls-1" d="M334,168l-1.15-3.81,3.25,1.16Z"/><path class="cls-1" d="M261.27,143h3.17C262.8,145,262.8,145,261.27,143Z"/><path class="cls-1" d="M224.05,327.08a4.31,4.31,0,0,1-.41-1.17c0-.12.68-.46.75-.39a5.45,5.45,0,0,1,.69,1.05Z"/><path class="cls-1" d="M77.5,89.21a7.65,7.65,0,0,1-1.13.93c-.1,0-.67-.43-.64-.49a10.82,10.82,0,0,1,.82-1.33Z"/><path class="cls-1" d="M331.23,292.28l2.2-.83c.21.55.38,1,.82,2.21Z"/><path class="cls-1" d="M95.81,225.4l.14,3.25-1.75-1.84Z"/><path class="cls-1" d="M273.4,176.13l-1.16-1.1.42-.65,1.54.76Z"/></svg>